<?xml version="1.0" encoding="UTF-8" standalone="no"?>
<!-- Created with Inkscape (http://www.inkscape.org/) -->

<svg
   width="736mm"
   height="853mm"
   viewBox="0 0 736 853"
   version="1.1"
   id="svg1"
   xml:space="preserve"
   inkscape:version="1.4 (86a8ad7, 2024-10-11)"
   sodipodi:docname="logo.svg"
   inkscape:export-filename="estim.png"
   inkscape:export-xdpi="25.389402"
   inkscape:export-ydpi="25.389402"
   xmlns:inkscape="http://www.inkscape.org/namespaces/inkscape"
   xmlns:sodipodi="http://sodipodi.sourceforge.net/DTD/sodipodi-0.dtd"
   xmlns="http://www.w3.org/2000/svg"
   xmlns:svg="http://www.w3.org/2000/svg"><sodipodi:namedview
     id="namedview1"
     pagecolor="#ffffff"
     bordercolor="#000000"
     borderopacity="0.25"
     inkscape:showpageshadow="2"
     inkscape:pageopacity="0.0"
     inkscape:pagecheckerboard="0"
     inkscape:deskcolor="#d1d1d1"
     inkscape:document-units="mm"
     inkscape:zoom="0.1767767"
     inkscape:cx="251.73001"
     inkscape:cy="1739.4826"
     inkscape:window-width="1920"
     inkscape:window-height="1001"
     inkscape:window-x="-9"
     inkscape:window-y="-9"
     inkscape:window-maximized="1"
     inkscape:current-layer="layer1" /><defs
     id="defs1"><clipPath
       clipPathUnits="userSpaceOnUse"
       id="clipPath12"><rect
         style="fill:#9d1a05;fill-opacity:1;stroke-width:0.264583"
         id="rect13"
         width="15.528359"
         height="19.270134"
         x="319.93558"
         y="300.95584"
         transform="rotate(7.4149691)" /></clipPath><clipPath
       clipPathUnits="userSpaceOnUse"
       id="clipPath12-6"><rect
         style="fill:#9d1a05;fill-opacity:1;stroke-width:0.264583"
         id="rect13-3"
         width="15.528359"
         height="19.270134"
         x="319.93558"
         y="300.95584"
         transform="rotate(7.4149691)" /></clipPath></defs><g
     inkscape:label="Layer 1"
     inkscape:groupmode="layer"
     id="layer1"><path
       sodipodi:type="star"
       style="fill:#9d1a05;fill-opacity:1;stroke-width:0.264583"
       id="path6"
       inkscape:flatsided="true"
       sodipodi:sides="6"
       sodipodi:cx="39.069427"
       sodipodi:cy="39.069427"
       sodipodi:r1="255.94188"
       sodipodi:r2="221.65218"
       sodipodi:arg1="-0.51423732"
       sodipodi:arg2="0.0093614578"
       inkscape:rounded="0"
       inkscape:randomized="0"
       d="M 261.90986,-86.820948 259.51391,169.10972 36.673474,295.00009 -183.77101,164.9598 -181.37505,-90.970861 41.465381,-216.86124 Z"
       transform="matrix(1.6601657,-0.01557399,0.01561907,1.664971,302.52805,362.2478)" /><path
       sodipodi:type="star"
       style="fill:#2b2a29;fill-opacity:1;stroke-width:0.264583"
       id="path7"
       inkscape:flatsided="false"
       sodipodi:sides="6"
       sodipodi:cx="39.069427"
       sodipodi:cy="39.069427"
       sodipodi:r1="255.94188"
       sodipodi:r2="221.65218"
       sodipodi:arg1="-0.51423732"
       sodipodi:arg2="0.0093614578"
       inkscape:rounded="0"
       inkscape:randomized="0"
       d="M 261.90986,-86.820948 260.71189,41.144385 259.51391,169.10972 148.09369,232.05491 36.673474,295.00009 -73.54877,229.97995 -183.77101,164.9598 l 1.19797,-127.96533 1.19799,-127.965331 111.420211,-62.945199 111.42022,-62.94518 110.222239,65.02014 z"
       transform="matrix(1.5305476,-0.01838586,0.01843007,1.5342276,307.71619,367.27693)" /><g
       style="fill:#9d1a05;fill-opacity:1"
       id="g7"
       transform="matrix(10.885714,0,0,10.885714,96.17482,497.39213)"><path
         d="m 6.999995,1 c -1.2494,2.0791 -2.65591,4.0791 -4.08487,6 1.49629,1.9209 2.92525,3.9209 4.08487,6 1.20452,-2.1187 2.52125,-4.1385 4.08488,-6 C 9.566135,5.0791 8.182065,3.0396 6.999995,1 Z"
         id="path1"
         style="fill:#9d1a05;fill-opacity:1" /></g><g
       style="fill:#ffffff"
       id="g8"
       transform="matrix(10.885714,0,0,10.885714,477.16005,494.97178)"><path
         d="m 5.9879637,6.1783 c -1.89881,-0.907 -4.69189,0.1749 -4.03105,2.6155 0.64399,2.3784 3.42513,1.8564 4.38685,0.4087 -0.40121,2.745 -1.10584,3.1724 -1.52817,3.7683 h 4.48387 c -0.4543,-0.6373 -1.27925,-1.0233 -1.76303,-3.806 0.96908,1.4454 3.8823703,1.9464 4.5170603,-0.3976 0.62435,-2.3058 -2.1900103,-3.619 -4.0614903,-2.5751 1.79457,-1.2051 2.4390503,-5.1629 -0.95987,-5.1629 -3.43247,0 -2.85977,4.0352 -1.04417,5.1491 z"
         id="path1-9"
         style="fill:#ffffff" /></g><g
       style="fill:#9d1a05;fill-opacity:1"
       id="g9"
       transform="matrix(10.885714,0,0,10.885714,476.39634,202.83209)"><path
         d="m 6.9238749,12.964876 c -0.0111,-0.02 -0.0587,-0.1642 -0.10586,-0.3207 -0.29877,-0.9913 -0.8534,-1.9952 -1.78219,-3.2256997 -0.34895,-0.4623 -0.67739,-0.8717 -1.56552,-1.9513 -1.02835,-1.25 -1.32291,-1.6505 -1.62036,-2.2028 -0.17565,-0.3262 -0.35768,-0.8224 -0.41758,-1.1385 -0.0599,-0.3158 -0.0608,-0.8319 -0.002,-1.1006 0.23902,-1.093 1.2099,-1.9176 2.37084,-2.0136 1.32995,-0.10999996 2.46124,0.5618 3.05565,1.8147 l 0.13273,0.2797 0.0999,-0.221 c 0.14844,-0.3284 0.29139,-0.5505 0.53268,-0.8276 0.61434,-0.7056 1.34547,-1.0512 2.22626,-1.0524 0.3945301,-5e-4 0.6206001,0.032 0.9568001,0.1386 0.50282,0.1591 0.88133,0.407 1.21843,0.7979 0.87849,1.0187 0.77448,2.4066 -0.30777,4.1063 -0.25245,0.3965 -0.70795,0.9832 -1.33437,1.7187 -0.7213701,0.8469 -1.0738301,1.2773 -1.4347001,1.752 -0.86498,1.1376997 -1.44672,2.1714997 -1.76671,3.1394997 -0.0488,0.1477 -0.1,0.2853 -0.11365,0.3058 -0.0318,0.048 -0.11629,0.048 -0.1425,10e-4 z"
         id="path1-6"
         style="fill:#9d1a05;fill-opacity:1" /></g><g
       style="fill:#ffffff"
       id="g10"
       transform="matrix(10.885714,0,0,10.885714,94.51648,203.67799)"><path
         d="m 3.6869427,5.1442 c -3.93797403,4.0232 -0.0777,6.9415 3.0358505,5.0207 -0.58789,2.0957 -0.91118,2.2606 -1.26809,2.8125 h 3.36166 c -0.43151,-0.5573 -0.88469,-0.7168 -1.34383,-2.8005 C 10.651373,12.0029 14.001703,8.8184 10.474403,5.1442 8.1675332,3.1264 7.2719332,1.2842 7.0806732,1.0226 6.8971532,1.2405 5.8159332,3.1638 3.6869427,5.1442 Z"
         id="path1-5"
         style="fill:#ffffff" /></g><rect
       style="fill:#9d1a05;fill-opacity:1;stroke-width:0.3229"
       id="rect10"
       width="183.25418"
       height="14.601344"
       x="-0.3017014"
       y="419.19934" /><rect
       style="fill:#9d1a05;fill-opacity:1;stroke-width:0.018482"
       id="rect10-51"
       width="0.60886794"
       height="14.397505"
       x="182.48949"
       y="419.31161" /><rect
       style="fill:#9d1a05;fill-opacity:1;stroke-width:0.416861"
       id="rect10-4"
       width="305.42365"
       height="14.601295"
       x="7.9375"
       y="-375.30066"
       transform="rotate(90)" /><rect
       style="fill:#9d1a05;fill-opacity:1;stroke-width:0.443069"
       id="rect10-4-1"
       width="344.31573"
       height="14.631684"
       x="498.62994"
       y="-376.51007"
       transform="rotate(90)" /><rect
       style="fill:#9d1a05;fill-opacity:1;stroke-width:0.323235"
       id="rect10-5"
       width="183.25418"
       height="14.631684"
       x="552.74585"
       y="421.14377" /><text
       xml:space="preserve"
       style="font-style:normal;font-variant:normal;font-weight:normal;font-stretch:normal;font-size:140px;line-height:1;font-family:Harrington;-inkscape-font-specification:Harrington;fill:#9d1a05;fill-opacity:1;stroke-width:0.264583"
       x="369.8457"
       y="464.57617"
       id="text11"><tspan
         sodipodi:role="line"
         id="tspan11"
         style="font-style:normal;font-variant:normal;font-weight:normal;font-stretch:normal;font-size:140px;line-height:1;font-family:Harrington;-inkscape-font-specification:Harrington;text-align:center;text-anchor:middle;fill:#9d1a05;fill-opacity:1;stroke-width:0.264583"
         x="369.8457"
         y="464.57617">joker</tspan></text><path
       sodipodi:type="star"
       style="fill:#9d1a05;fill-opacity:1;stroke-width:0.264583"
       id="path11"
       inkscape:flatsided="false"
       sodipodi:sides="3"
       sodipodi:cx="259.89145"
       sodipodi:cy="256.82187"
       sodipodi:r1="15.381989"
       sodipodi:r2="7.6909947"
       sodipodi:arg1="0.066568164"
       sodipodi:arg2="1.1137657"
       inkscape:rounded="0"
       inkscape:randomized="0"
       d="m 275.23937,257.84506 -11.954,5.87845 -11.95399,5.87845 0.88611,-13.29169 0.88611,-13.29169 11.06789,7.41324 z"
       inkscape:transform-center-x="-3.8358985"
       inkscape:transform-center-y="-0.014134504"
       transform="matrix(0.99537285,-0.03461819,0.066315,0.54695627,-85.101074,295.0408)" /><rect
       style="fill:#9d1a05;fill-opacity:1;stroke-width:0.018482"
       id="rect10-51-9"
       width="0.60886794"
       height="14.397505"
       x="312.84799"
       y="-375.19876"
       transform="rotate(90)" /><path
       sodipodi:type="star"
       style="fill:#9d1a05;fill-opacity:1;stroke-width:0.264583"
       id="path11-3"
       inkscape:flatsided="false"
       sodipodi:sides="3"
       sodipodi:cx="259.89145"
       sodipodi:cy="256.82187"
       sodipodi:r1="15.381989"
       sodipodi:r2="7.6909947"
       sodipodi:arg1="0.066568164"
       sodipodi:arg2="1.1137657"
       inkscape:rounded="0"
       inkscape:randomized="0"
       d="m 275.23937,257.84506 -11.954,5.87845 -11.95399,5.87845 0.88611,-13.29169 0.88611,-13.29169 11.06789,7.41324 z"
       inkscape:transform-center-x="-0.014134179"
       inkscape:transform-center-y="3.8358985"
       transform="matrix(0.03461819,0.99537285,-0.54695627,0.066315,499.4592,45.257437)" /><path
       sodipodi:type="star"
       style="fill:#9d1a05;fill-opacity:1;stroke-width:0.264583"
       id="path12"
       inkscape:flatsided="false"
       sodipodi:sides="10"
       sodipodi:cx="303.832"
       sodipodi:cy="353.22339"
       sodipodi:r1="24.774946"
       sodipodi:r2="12.387475"
       sodipodi:arg1="0.43662716"
       sodipodi:arg2="0.75078643"
       inkscape:rounded="0"
       inkscape:randomized="0"
       d="m 326.28264,363.70035 -13.3935,-2.02605 2.9476,13.22129 -9.64468,-9.51162 -5.38662,12.4288 -2.21192,-13.36406 -11.66333,6.88894 6.06571,-12.11189 -13.48505,-1.28226 12.02646,-6.23339 -10.15595,-8.96369 13.39351,2.02606 -2.94761,-13.22129 9.64468,9.51162 5.38662,-12.42881 2.21192,13.36407 11.66334,-6.88895 -6.06572,12.1119 13.48505,1.28226 -12.02645,6.23339 z"
       inkscape:transform-center-x="6.9459583e-06"
       inkscape:transform-center-y="-1.0695365e-05"
       transform="matrix(0.99163748,-0.12858482,0.12905468,0.98802715,218.25853,118.44617)"
       clip-path="url(#clipPath12)" /><path
       sodipodi:type="star"
       style="fill:#9d1a05;fill-opacity:1;stroke-width:0.264583"
       id="path12-5"
       inkscape:flatsided="false"
       sodipodi:sides="10"
       sodipodi:cx="303.832"
       sodipodi:cy="353.22339"
       sodipodi:r1="24.774946"
       sodipodi:r2="12.387475"
       sodipodi:arg1="0.43662716"
       sodipodi:arg2="0.75078643"
       inkscape:rounded="0"
       inkscape:randomized="0"
       d="m 326.28264,363.70035 -13.3935,-2.02605 2.9476,13.22129 -9.64468,-9.51162 -5.38662,12.4288 -2.21192,-13.36406 -11.66333,6.88894 6.06571,-12.11189 -13.48505,-1.28226 12.02646,-6.23339 -10.15595,-8.96369 13.39351,2.02606 -2.94761,-13.22129 9.64468,9.51162 5.38662,-12.42881 2.21192,13.36407 11.66334,-6.88895 -6.06572,12.1119 13.48505,1.28226 -12.02645,6.23339 z"
       inkscape:transform-center-x="-1.3997845e-05"
       inkscape:transform-center-y="-7.2574845e-06"
       transform="rotate(82.585031,247.1608,468.99764)"
       clip-path="url(#clipPath12-6)" /></g></svg>
